<?xml version="1.0" encoding="UTF-8"?>
<svg width="20px" height="20px" viewBox="0 0 20 20" version="1.1" xmlns="http://www.w3.org/2000/svg" xmlns:xlink="http://www.w3.org/1999/xlink">
    <!-- Generator: Sketch 55.1 (78136) - https://sketchapp.com -->
    <title>Shape</title>
    <desc>Created with Sketch.</desc>
    <g id="Design" stroke="none" stroke-width="1" fill="none" fill-rule="evenodd">
        <g id="Company_5" transform="translate(-1049.000000, -3450.000000)" fill="#000" fill-rule="nonzero">
            <g id="Group-14" transform="translate(0.000000, 3232.000000)">
                <path d="M1054.7125,218 C1051.56406,218 1049,220.529688 1049,223.6375 C1049,224.590625 1049.24844,225.520312 1049.7125,226.35 C1049.60313,226.925 1049.55,227.517188 1049.55,228.1 C1049.55,233.3 1053.82969,237.525 1059.1,237.525 C1059.64063,237.525 1060.18125,237.489062 1060.7125,237.4 C1061.50313,237.795312 1062.39219,238 1063.2875,238 C1066.43594,238 1069,235.470312 1069,232.3625 C1069,231.528125 1068.81563,230.73125 1068.4625,229.9875 C1068.59063,229.373438 1068.6625,228.739062 1068.6625,228.1 C1068.6625,222.901562 1064.37031,218.675 1059.1,218.675 C1058.60469,218.675 1058.10469,218.7125 1057.6125,218.7875 C1056.73438,218.273438 1055.73906,218 1054.7125,218 Z M1059.0375,221.75 C1059.85625,221.75 1060.57344,221.839062 1061.175,222.025 C1061.77813,222.209375 1062.28906,222.454688 1062.6875,222.7625 C1063.09063,223.073438 1063.39844,223.404688 1063.5875,223.75 C1063.77813,224.098438 1063.875,224.453125 1063.875,224.7875 C1063.875,225.110938 1063.7375,225.39375 1063.4875,225.65 C1063.2375,225.90625 1062.92344,226.0375 1062.55,226.0375 C1062.21094,226.0375 1061.94688,225.959375 1061.7625,225.8 C1061.59063,225.65 1061.40938,225.421875 1061.2125,225.0875 C1060.98438,224.659375 1060.71719,224.310938 1060.4,224.075 C1060.09219,223.845312 1059.56875,223.7375 1058.8625,223.7375 C1058.20625,223.7375 1057.67031,223.85625 1057.275,224.1125 C1056.89219,224.359375 1056.7125,224.651562 1056.7125,224.9875 C1056.7125,225.19375 1056.77656,225.364062 1056.9,225.5125 C1057.03125,225.66875 1057.20469,225.798438 1057.4375,225.9125 C1057.67813,226.03125 1057.92656,226.132812 1058.175,226.2 C1058.42969,226.26875 1058.86406,226.378125 1059.45,226.5125 C1060.19063,226.670312 1060.87188,226.835938 1061.475,227.025 C1062.08438,227.21875 1062.60781,227.460938 1063.0375,227.7375 C1063.475,228.01875 1063.82813,228.379688 1064.075,228.8125 C1064.32188,229.245312 1064.4375,229.776562 1064.4375,230.4 C1064.43594,231.14375 1064.22656,231.81875 1063.8,232.4125 C1063.375,233.004688 1062.74844,233.48125 1061.9375,233.8125 C1061.13438,234.140625 1060.17031,234.3 1059.075,234.3 C1057.75938,234.3 1056.65938,234.076562 1055.8,233.625 C1055.18438,233.298438 1054.67031,232.846875 1054.2875,232.3 C1053.89688,231.746875 1053.7,231.204688 1053.7,230.675 C1053.7,230.345312 1053.83438,230.060938 1054.0875,229.825 C1054.33906,229.59375 1054.65469,229.475 1055.0375,229.475 C1055.35156,229.475 1055.62969,229.565625 1055.85,229.75 C1056.0625,229.926562 1056.24219,230.189062 1056.3875,230.525 C1056.55,230.892188 1056.72344,231.192188 1056.9125,231.4375 C1057.09063,231.670312 1057.34531,231.871875 1057.675,232.025 C1058.00625,232.18125 1058.46094,232.2625 1059.0125,232.2625 C1059.77031,232.2625 1060.38438,232.101562 1060.85,231.7875 C1061.30625,231.48125 1061.5375,231.114062 1061.5375,230.6625 C1061.5375,230.30625 1061.4125,230.01875 1061.175,229.8 C1060.925,229.570312 1060.59688,229.396875 1060.2,229.275 C1059.78281,229.148438 1059.22344,229.007812 1058.525,228.8625 C1057.575,228.660938 1056.76719,228.41875 1056.125,228.15 C1055.46719,227.873438 1054.9375,227.489062 1054.55,227.0125 C1054.15625,226.526562 1053.95,225.928125 1053.95,225.2125 C1053.95,224.529688 1054.16094,223.904688 1054.575,223.375 C1054.98281,222.85 1055.57969,222.442188 1056.35,222.1625 C1057.10938,221.884375 1058.01563,221.75 1059.0375,221.75 Z" id="Shape"></path>
            </g>
        </g>
    </g>
</svg>