<?xml version="1.0" encoding="UTF-8"?>
<svg width="13px" height="13px" viewBox="0 0 13 13" version="1.1" xmlns="http://www.w3.org/2000/svg" xmlns:xlink="http://www.w3.org/1999/xlink">
    <!-- Generator: Sketch 52.2 (67145) - http://www.bohemiancoding.com/sketch -->
    <title>Combined Shape</title>
    <desc>Created with Sketch.</desc>
    <g id="Design" stroke="none" stroke-width="1" fill="none" fill-rule="evenodd">
        <g id="Company_5" transform="translate(-1125.000000, -3438.000000)" fill="#3B3B3B">
            <g id="Group-14" transform="translate(0.000000, 3232.000000)">
                <g id="Group-20" transform="translate(1125.000000, 206.000000)">
                    <path d="M6.6,12.5 C3.2862915,12.5 0.6,9.8137085 0.6,6.5 C0.6,3.1862915 3.2862915,0.5 6.6,0.5 C9.9137085,0.5 12.6,3.1862915 12.6,6.5 C12.6,9.8137085 9.9137085,12.5 6.6,12.5 Z M6.80098145,9.732 C8.50198145,9.732 9.74398145,8.841 9.85198145,7.149 L7.81798145,7.149 C7.74598145,7.797 7.33198145,8.094 6.75598145,8.094 C5.96398145,8.094 5.53198145,7.5 5.53198145,6.429 L5.53198145,6.357 C5.53198145,5.268 5.98198145,4.692 6.71998145,4.692 C7.28698145,4.692 7.60198145,5.025 7.66498145,5.619 L9.77098145,5.619 C9.61798145,3.873 8.44798145,3.081 6.71098145,3.081 C4.81198145,3.081 3.38098145,4.377 3.38098145,6.366 L3.38098145,6.438 C3.38098145,8.409 4.47898145,9.732 6.80098145,9.732 Z" id="Combined-Shape"></path>
                </g>
            </g>
        </g>
    </g>
</svg>