<?xml version="1.0" encoding="UTF-8"?>
<svg width="12px" height="14px" viewBox="0 0 12 14" version="1.1" xmlns="http://www.w3.org/2000/svg" xmlns:xlink="http://www.w3.org/1999/xlink">
    <!-- Generator: Sketch 52.2 (67145) - http://www.bohemiancoding.com/sketch -->
    <title>Combined Shape</title>
    <desc>Created with Sketch.</desc>
    <g id="Design" stroke="none" stroke-width="1" fill="none" fill-rule="evenodd">
        <g id="Company_5" transform="translate(-1126.000000, -3467.000000)" fill="#3B3B3B">
            <g id="Group-14" transform="translate(0.000000, 3232.000000)">
                <g id="Group-19" transform="translate(1126.000000, 232.000000)">
                    <g id="Group-18" transform="translate(0.000000, 3.000000)">
                        <path d="M6,14 C2,11.4811074 0,8.75888514 0,5.83333333 C0,2.61167229 2.6862915,-4.34319247e-13 6,-4.34319247e-13 C9.3137085,-4.34319247e-13 12,2.61167229 12,5.83333333 C12,8.75888514 10,11.4811074 6,14 Z M6,8.16666667 C7.3254834,8.16666667 8.4,7.12199775 8.4,5.83333333 C8.4,4.54466892 7.3254834,3.5 6,3.5 C4.6745166,3.5 3.6,4.54466892 3.6,5.83333333 C3.6,7.12199775 4.6745166,8.16666667 6,8.16666667 Z" id="Combined-Shape"></path>
                    </g>
                </g>
            </g>
        </g>
    </g>
</svg>